<svg clip-rule="evenodd" fill-rule="evenodd" stroke-linejoin="round" stroke-miterlimit="2" viewBox="0 0 244 244" xmlns="http://www.w3.org/2000/svg" xmlns:xlink="http://www.w3.org/1999/xlink"><linearGradient id="a" gradientUnits="userSpaceOnUse" x1="205.5" x2="257.5" y1="134" y2="134"><stop offset="0" stop-color="#ba6598"/><stop offset="1" stop-color="#1d4f5f"/></linearGradient><g transform="translate(-240)"><g fill-rule="nonzero"><path d="m260.961 139.322c-9.23-2.4-14.291-3.85-3.014 3.973 21.755 15.091 20.713 34.601 72.553 24.805 0-14.5 7-10.6-1-10.6-55.982 9.689-40.451-10.875-68.539-18.178z" fill="url(#a)"/><path d="m411.221 48c-66.655-12.391-113.5 24-130-19l-6 3.5c18.5 45 64.5 16.055 109.5 23-54.5 4.573-69.29 32.5-75 65-6.5 37 .501 94.591 57.5 105 57 10.409 93.066-27.5 106.5-72 12.529-41.5 4.156-93.109-62.5-105.5z" fill="#99dff5"/><path d="m316.45 96.649c2.85-5.385 6.239-10.308 10.172-14.591 28.808-31.375 91.797-33.324 120.707-.635 55.153 62.361-23.948 174.046-97.578 127.428-38.673-24.485-42.174-94.727-9.074-125.584 18.48-17.228 43.518-20.615 64.705-13.73 9.948 3.232 20.257 6.746 28.129 13.745 44.665 39.717 8.444 121.158-50.528 115.902-31.128-2.775-49.235-27.576-49.883-57.785-.253-11.773 1.503-24.657 6.716-35.381 4.822-9.919 14.649-12.395 11.497-9.348-44.632 43.128 15.904 134.382 74.756 83.426 33.632-29.119 29.726-72.418 4.152-93.291-20.334-16.597-50.714-23.39-78.526-6.586-65.084 39.325-14.033 175.399 72.967 120.535 39.463-24.887 51.944-89.907 14.748-122.511-18.43-16.155-46.042-19.133-69.387-14.775-12.079 2.255-23.791 7.065-33.254 15.016-35.039 29.44-35.019 102.419-1.245 132.972.969.876 1.963 1.717 2.98 2.523-30.56-21.31-33.97-63.951-28.783-93.479 1.469-8.359 3.538-16.416 6.729-23.851z" fill="#d9f6ff"/><path d="m470.414 163.133c1.223-3.165 2.325-6.381 3.307-9.633 5.138-17.02 6.761-35.741 2.289-52.759-17.826-50.383-75.809-56.719-121.513-51.932-3.741.392-7.767.986-11.942 1.602-22.716 3.354-49.867 7.362-59.851-17.011-1.422-3.471-4.881-.606-.102 7.222 3.806 6.232 8.98 10.591 15.875 13.038 13.416 4.76 29.634 2.24 44.502-.07 4.833-.751 9.523-1.48 13.927-1.929 55.816-5.694 122.102 10.604 119.414 79.945-.415 10.687-2.562 21.353-5.906 31.527z" fill="#d9f6ff"/><path d="m351.313 92.67c3.153-3.047-6.674-.571-11.496 9.348-5.213 10.724-6.97 23.608-6.717 35.381.648 30.209 18.756 55.01 49.884 57.785 58.971 5.256 95.192-76.185 50.527-115.902-7.872-6.999-18.18-10.513-28.129-13.745-21.186-6.885-46.225-3.498-64.705 13.73-33.099 30.857-29.598 101.099 9.074 125.584 73.63 46.618 152.732-65.067 97.579-127.428-12.371-13.988-30.982-21.633-50.484-23.344-.041-.026-.083-.053-.125-.079-21.511-3.963-41.313-1.302-58.6 1.02-28.519 3.831-50.193 6.743-61.4-22.52-1.148-3-3.673-1.5-2.5 1.5 9.348 36.351 47.464 29.73 78.989 24.253 5.026-.873 9.885-1.717 14.433-2.354-15.97 3.444-30.692 10.91-41.02 22.159-27.423 29.865-28.388 90.786-4.751 123.147 27.553 37.721 86.288 37.995 120.681 9.516 31.299-25.917 47.157-74.883 33.54-113.746-17.729-50.598-75.821-56.96-121.595-52.166-3.742.392-7.767.986-11.943 1.602-22.715 3.354-49.867 7.362-59.851-17.011-1.422-3.471-4.881-.606-.101 7.222 3.805 6.232 8.979 10.591 15.874 13.038 13.417 4.76 29.634 2.24 44.502-.07 4.833-.751 9.523-1.48 13.928-1.929 55.815-5.694 122.101 10.604 119.413 79.945-.471 12.151-3.182 24.274-7.345 35.678-5.046 13.82-12.721 26.746-23.259 37.086-9.106 8.936-20.192 15.735-32.292 19.783-25.472 8.522-57.373 5.872-77.899-12.697-33.775-30.553-33.795-103.532 1.244-132.972 9.463-7.951 21.176-12.761 33.255-15.016 23.344-4.358 50.957-1.38 69.387 14.775 37.195 32.604 24.715 97.624-14.749 122.511-87 54.864-138.051-81.21-72.967-120.535 27.812-16.804 58.192-10.011 78.526 6.586 25.575 20.873 29.48 64.172-4.151 93.291-58.853 50.956-119.389-40.298-74.757-83.426z" fill="#478ea5"/><path d="m364.098 97.566c16.609-12.802 55.492-6.224 65.999 13.554 8.925 16.8 5.615 38.54-9.983 48.611-11.176 7.214-18.424 5.754-29.301 3.563-1.699-.342-3.488-.702-5.394-1.05-.535-.098-1.065-.194-1.592-.289-12.933-2.344-23.392-4.239-29.712-15.779-8.985-16.405-4.782-37.23 9.983-48.61z" fill="#478ea5"/><path d="m425.485 113.793c-9.38-15.772-43.038-21.579-57.168-11.741-12.561 8.745-15.858 25.111-7.845 38.198 7.577 12.373 46.684 17.809 57.169 11.74 13.3-7.698 15.812-24.8 7.844-38.197z" fill="#fff"/><path d="m356.247 122.408c-.576 5.975.778 12.212 4.225 17.841 7.577 12.374 46.684 17.809 57.169 11.741 10.391-6.014 14.197-17.767 11.566-29.01-.502 16.689-13.997 21.02-40.486 21.02-18.446 0-31.363-6.805-32.474-21.592z" fill="#f0f0f0"/><path d="m359.466 87.87c9.397-4.589 20.198-6.514 32.676-5.597 1.482.109 2.851-.839 3.219-2.278l.84-3.283c.415-1.624-.573-3.248-2.235-3.475-7.029-.958-25.003-1.87-38.188 10.844-2.352 2.269.751 5.223 3.688 3.789z" fill="#1d4f5f"/><path d="m407.416 87.455c11.295 3.045 19.656 9.769 24.693 19.733 1.549 3.064 6.107 2.687 5.371-.667-4.123-18.782-20.829-27.06-27.727-29.725-1.614-.624-3.296.405-3.644 2.1l-1.012 4.928c-.333 1.623.719 3.2 2.319 3.631z" fill="#1d4f5f"/><path d="m382.627 126.129c-1.055 5.139 2.256 10.161 7.395 11.217 5.14 1.055 10.162-2.255 11.217-7.395 1.056-5.139-2.255-10.161-7.395-11.217-5.139-1.055-10.161 2.255-11.217 7.395z" fill="#1d4f5f"/><path d="m355.943 170.373c1.485-3.314 4.209-7.193 8.583-8.153 1.034-.228 1.482-1.657.477-1.992-3.034-1.011-6.421-.948-8.934.772-3.207 3.25-3.445 5.727-2.057 9.41.321.854 1.557.796 1.931-.037z" fill="#1d4f5f"/><path d="m361.654 164.899c5.659 12.816 31.876 19.44 47.118 9.159 0 0 2.059-.109 1.677 1.854-3.352 3.966-14.815 11.526-28.289 9.273-13.168-2.202-21.264-12.982-22.946-18.213.381-1.963 2.44-2.073 2.44-2.073z" fill="#1d4f5f"/><path d="m403.225 169.108c5.496 1.77 11.013 4.963 10.663 12.041-.048.962 1.026 1.551 1.564.752 2.203-3.269 2.631-7.778-.231-11.401-3.024-3.828-8.425-4.4-12.158-2.975-.79.301-.642 1.324.162 1.583z" fill="#1d4f5f"/><path d="m391.509 118.547c-3.184.14-6.083 1.885-7.712 4.584.593 1.205 1.717 2.134 3.135 2.425 2.434.5 4.813-1.068 5.313-3.503.261-1.27-.042-2.525-.736-3.506z" fill="#99dff5"/><path d="m284.656 28.076-12.782 5.81c-2.553 1.16-5.561-.005-6.665-2.583l-6.54-15.258c-1.079-2.518.069-5.436 2.575-6.543l12.466-5.509c2.502-1.105 5.427.005 6.567 2.491l6.855 14.957c1.153 2.515.043 5.489-2.476 6.635z" fill="#d3e0e3"/><path d="m275.658 143.127-9.675 10.175c-1.932 2.032-5.157 2.078-7.146.102l-11.78-11.697c-1.944-1.931-1.972-5.066-.063-7.032l9.495-9.777c1.905-1.961 5.033-2.029 7.02-.151l11.96 11.3c2.011 1.901 2.096 5.074.189 7.08z" fill="#d3e0e3"/><path d="m285.221 26.5c-1.6-3.2-6.666-13.667-9-18.5l-17.5 7.5v-3.5l17.5-9 4.5 3 8 18.5z" fill="#effcff"/><path d="m275.592 141.454c-2.682-2.368-11.3-10.174-15.274-13.781l-13.417 13.509-1.311-3.245 12.855-14.9 5.296 1.095 14.347 14.156z" fill="#effcff"/><path d="m271.079 4.145c-.748.354-1.068 1.249-.713 1.997l4.5 9.5c.355.749 1.249 1.068 1.998.714.748-.355 1.068-1.249.713-1.998l-4.5-9.5c-.354-.749-1.249-1.068-1.998-.713z" fill="#2a373a"/><path d="m267.079 6.145c-.748.354-1.068 1.249-.713 1.997l4.5 9.5c.355.749 1.249 1.068 1.998.714.748-.355 1.068-1.249.713-1.998l-4.5-9.5c-.354-.749-1.249-1.068-1.998-.713z" fill="#2a373a"/><path d="m262.366 10.142c-.355-.748-.035-1.643.713-1.997.749-.355 1.644-.036 1.998.713l4.5 9.5c.355.749.035 1.643-.713 1.998-.749.354-1.643.035-1.998-.714z" fill="#2a373a"/></g><path d="m282.095 5.65c-1.596-3.48-5.691-5.033-9.193-3.486l-13.466 6.508c-3.509 1.551-5.116 5.635-3.605 9.161l7.539 17.258c1.547 3.608 5.757 5.24 9.331 3.615l13.782-6.81c3.527-1.603 5.081-5.767 3.467-9.289zm-7.576.173c1.5-.663 3.256.002 3.939 1.494l6.855 14.957c.692 1.509.026 3.294-1.485 3.981l-12.782 5.81c-1.532.696-3.336-.003-3.999-1.549l-6.54-15.259c-.647-1.511.042-3.262 1.545-3.926z" fill="#67777b"/><path d="m264.883 123.294c-2.783-2.63-7.162-2.536-9.829.211l-10.048 11.079c-2.672 2.751-2.632 7.141.089 9.844l13.456 13.177c2.785 2.766 7.3 2.702 10.005-.143l10.228-11.477c2.67-2.808 2.551-7.251-.266-9.912zm-6.96 2.998c1.143-1.177 3.02-1.218 4.213-.091l8.06 7.616-13.729 14.416-8.001-7.945c-1.166-1.159-1.183-3.04-.038-4.219zm1.383 24.76 13.798-14.487.991.936c1.207 1.14 1.258 3.044.114 4.248l-9.675 10.175c-1.16 1.219-3.095 1.247-4.288.061z" fill="#67777b"/></g></svg>