<?xml version="1.0" encoding="UTF-8"?>
<svg width="100px" height="100px" viewBox="0 0 100 100" version="1.1" xmlns="http://www.w3.org/2000/svg" xmlns:xlink="http://www.w3.org/1999/xlink">
    <title>Untitled</title>
    <g id="Page-1" stroke="none" stroke-width="1" fill="none" fill-rule="evenodd">
        <g id="cable-ready-logo" transform="translate(0.631854, 0.597135)">
            <g id="Group" fill="#000000">
                <path d="M87.9105093,1.54245384 L98.7076862,1.54245384 L98.7076862,20.050028 L87.9105093,20.050028 L87.9105093,21.5924818 L78.3394335,21.5924818 C76.8138268,21.5924818 75.5727505,20.3514055 75.5727505,18.8257989 L75.5727505,15.4226665 C73.5641911,15.4226665 71.8682406,14.1291767 71.2299193,12.3377588 L48.5180353,12.3377588 C41.8596514,12.3377588 35.7347619,14.6476957 30.8846431,18.4963427 C34.0051171,17.4593046 37.3427326,16.8977316 40.807638,16.8977316 C48.66966,16.8977316 53.6377091,18.7733854 58.1433965,23.2790728 C63.1488838,27.7997354 66.3180275,34.3158541 66.3180275,41.5751211 L66.3180275,41.6088155 L66.3180275,41.6425099 C66.3180275,55.2494236 55.2475517,66.3198994 41.6425099,66.3198994 C34.381371,66.3198994 27.8652523,63.1507558 23.3445896,58.1433965 C18.7677697,53.5665766 17.242163,49.5681768 17.0006866,42.9097929 C16.9763518,42.4680222 16.9651203,42.0225076 16.9651203,41.5751211 C16.9651203,41.4777818 16.9651203,41.3823144 16.9669922,41.286847 C16.9651203,41.1277346 16.9651203,40.9686223 16.9651203,40.807638 C16.9651203,37.2453933 17.5585158,33.819798 18.6517112,30.6225757 C14.7075969,35.504517 12.3377588,41.702411 12.3377588,48.4525184 L12.3377588,71.1625306 C14.1291767,71.8008519 15.4226665,73.4986742 15.4226665,75.5053618 L18.823927,75.5053618 C20.3495336,75.5053618 21.5924818,76.74831 21.5924818,78.2739167 L21.5924818,87.8449925 L20.050028,87.8449925 L20.050028,98.6402974 L1.54058193,98.6402974 L1.54058193,87.8449925 L-1.66533454e-15,87.8449925 L-1.66533454e-15,78.2739167 C-1.66533454e-15,76.74831 1.24107633,75.5053618 2.76668298,75.5053618 L6.16794345,75.5053618 C6.16794345,73.4986742 7.46330517,71.8008519 9.25285113,71.1625306 L9.25285113,46.9512466 L9.28841742,46.9512466 C9.76388256,36.8653955 14.9977429,28.0019017 22.7886323,22.5621312 C28.2415062,14.8966598 37.0301236,9.76013874 47.0186354,9.29028933 L47.0186354,9.25472304 L71.2299193,9.25472304 C71.8682406,7.46330517 73.5641911,6.16981536 75.5727505,6.16981536 L75.5727505,2.76668298 C75.5727505,1.24107633 76.8138268,-3.10862447e-15 78.3394335,-3.10862447e-15 L87.9105093,-3.10862447e-15 L87.9105093,1.54245384 Z M4.62548961,84.7600848 L4.62548961,95.5572617 L6.16794345,95.5572617 L6.16794345,92.472354 L9.25285113,92.472354 L9.25285113,95.5572617 L12.3377588,95.5572617 L12.3377588,92.472354 L15.4226665,92.472354 L15.4226665,95.5572617 L16.9651203,95.5572617 L16.9651203,84.7600848 L18.5075742,84.7600848 L18.5075742,78.5902694 L15.4226665,78.5902694 L15.4226665,81.6751771 L6.16794345,81.6751771 L6.16794345,78.5902694 L3.08303577,78.5902694 L3.08303577,84.7600848 L4.62548961,84.7600848 Z M15.4226665,90.9299002 L6.16794345,90.9299002 L6.16794345,87.8449925 L15.4226665,87.8449925 L15.4226665,90.9299002 Z M10.795305,73.9647798 C9.94545783,73.9647798 9.25285113,74.6555146 9.25285113,75.5053618 L9.25285113,78.5902694 L12.3377588,78.5902694 L12.3377588,75.5053618 C12.3377588,74.6555146 11.6451521,73.9647798 10.795305,73.9647798 Z M20.050028,41.5751211 C20.050028,53.4823406 29.7352903,63.167603 41.6425099,63.167603 C53.5478575,63.167603 63.2349917,53.4823406 63.2349917,41.5751211 C63.2349917,38.2786876 62.4693805,35.1657013 61.1421963,32.3671958 C61.4903716,33.840389 61.6925379,35.3697394 61.6925379,36.9477596 C61.6925379,48.00326 52.6980103,56.9977876 41.6425099,56.9977876 C30.5870094,56.9977876 21.5924818,48.00326 21.5924818,36.9477596 C21.5924818,35.3697394 21.7927762,33.840389 22.1409515,32.3671958 C20.8137673,35.1657013 20.050028,38.2786876 20.050028,41.5751211 Z M42.1703885,20.008846 C41.9176806,20.0032303 41.6649728,19.9957426 41.4085211,19.9938707 C32.1631576,20.1211606 24.6755176,27.6724455 24.6755176,36.9477596 C24.6755176,46.3016938 32.2867037,53.9128799 41.6425099,53.9128799 C50.9964441,53.9128799 58.6076302,46.3016938 58.6076302,36.9477596 C58.6076302,27.7716568 51.2791025,20.2933763 42.1703885,20.008846 Z M78.6576582,15.4226665 L78.6576582,18.5075742 L84.8274736,18.5075742 L84.8274736,16.9651203 L95.6227785,16.9651203 L95.6227785,15.4226665 L92.5378708,15.4226665 L92.5378708,12.3377588 L95.6227785,12.3377588 L95.6227785,9.25472304 L92.5378708,9.25472304 L92.5378708,6.16981536 L95.6227785,6.16981536 L95.6227785,4.62736152 L84.8274736,4.62736152 L84.8274736,3.08490768 L78.6576582,3.08490768 L78.6576582,6.16981536 L81.7425659,6.16981536 L81.7425659,15.4226665 L78.6576582,15.4226665 Z M90.995417,6.16981536 L90.995417,15.4226665 L87.9105093,15.4226665 L87.9105093,6.16981536 L90.995417,6.16981536 Z M78.6576582,9.25472304 L75.5727505,9.25472304 C74.7210315,9.25472304 74.0302967,9.94732974 74.0302967,10.7971769 C74.0302967,11.647024 74.7210315,12.3377588 75.5727505,12.3377588 L78.6576582,12.3377588 L78.6576582,9.25472304 Z" id="Shape"></path>
            </g>
            <g id="Group" transform="translate(34.868902, 22.740965)" fill="#0096FF" fill-rule="nonzero">
                <path d="M12.8991598,0.638095222 C12.71479,0.231880194 12.3733562,0 11.963933,0 L6.93722674,0 C6.33715776,0 5.71374665,0.503468809 5.454671,1.19790611 L0.123636158,15.433269 C-0.0504388982,15.8975957 -0.0397037192,16.3900934 0.149565744,16.7807365 C0.340211513,17.1748478 0.677626447,17.4043923 1.07769078,17.4153634 L5.02284154,17.4792083 L2.16689856,26.6577993 C2.09665195,26.8867775 1.9489469,27.3666053 2.21209642,27.85974 C2.32710046,28.0760482 2.5244626,28.2084096 2.72760522,28.2084096 L2.77368391,28.2084096 C3.15899426,28.2084096 3.39120444,27.8327014 3.50263009,27.6515008 L12.7309203,12.7527029 C13.1247087,12.1180759 12.9622496,11.5484972 12.9027382,11.3827977 C12.8409696,11.2240348 12.5930696,10.7038616 11.9643184,10.7038616 L9.02783404,10.7038616 L12.8704776,1.99879878 C13.0719136,1.53963919 13.0830892,1.04254071 12.8991598,0.638095222 Z" id="Path"></path>
            </g>
        </g>
    </g>
</svg>