<?xml version="1.0" encoding="UTF-8"?>
<svg width="534px" height="230px" viewBox="0 0 534 230" version="1.1" xmlns="http://www.w3.org/2000/svg" xmlns:xlink="http://www.w3.org/1999/xlink">
    <title>Untitled</title>
    <g id="Page-1" stroke="none" stroke-width="1" fill="none" fill-rule="evenodd">
        <g id="cable-ready-logo-with-copy" transform="translate(0.221191, 0.565186)">
            <g id="Group" transform="translate(117.971978, 33.434814)" fill="#FFFFFF" fill-rule="nonzero">
                <path d="M272.27183,19 C278.33783,19 283.03783,21.3 286.37183,25.9 C289.77183,30.5 291.47183,36.9667 291.47183,45.3 C291.47183,53.5 289.80483,59.8333 286.47183,64.3 C283.20483,68.767 278.50483,71 272.37183,71 C268.37183,71 264.93783,69.867 262.07183,67.6 C259.27183,65.333 257.23783,62.2333 255.97183,58.3 L255.37183,70 L235.17183,70 L235.17183,0 L258.17183,0 L258.17183,28.4 C259.50483,25.4667 261.33783,23.1667 263.67183,21.5 C266.00483,19.8333 268.87183,19 272.27183,19 Z M263.07183,54.9 C264.80483,54.9 266.10483,54.2 266.97183,52.8 C267.83783,51.3333 268.27183,48.7333 268.27183,45 C268.27183,41.2667 267.83783,38.7 266.97183,37.3 C266.10483,35.9 264.80483,35.2 263.07183,35.2 C261.40483,35.2 260.17183,35.9667 259.37183,37.5 C258.57183,39.0333 258.17183,41.4 258.17183,44.6 L258.17183,45.4 C258.17183,48.7333 258.57183,51.1667 259.37183,52.7 C260.23783,54.1667 261.47183,54.9 263.07183,54.9 Z" id="Shape"></path>
                <path d="M141.30683,71 C158.23983,71 168.40683,63.9333 171.80683,49.8 L151.20683,44.5 C150.80683,47.7 149.90683,50 148.50683,51.4 C147.10683,52.8 144.83983,53.5 141.70683,53.5 C138.23983,53.5 135.67383,52.1667 134.00683,49.5 C132.33983,46.8333 131.50683,42.6667 131.50683,37 C131.50683,31.3333 132.37383,27.1667 134.10683,24.5 C135.83983,21.8333 138.43983,20.5 141.90683,20.5 C144.83983,20.5 147.00683,21.2 148.40683,22.6 C149.80683,24 150.77383,26.7333 151.30683,30.8 L171.30683,23 C169.97383,16.2667 166.57383,11.2667 161.10683,8 C155.63983,4.6667 149.03983,3 141.30683,3 C134.37383,3 128.37383,4.3333 123.30683,7 C118.30683,9.6667 114.43983,13.5667 111.70683,18.7 C109.03983,23.7667 107.70683,29.8667 107.70683,37 C107.70683,44.1333 109.03983,50.2667 111.70683,55.4 C114.43983,60.4667 118.30683,64.333 123.30683,67 C128.37383,69.667 134.37383,71 141.30683,71 L141.30683,71 Z" id="Path"></path>
                <path d="M232.18283,57.3 C231.64883,57.5667 230.81583,57.7 229.68283,57.7 C227.41583,57.7 226.28283,56.3333 226.28283,53.6 L226.28283,39.6 C226.28283,32.6667 224.14883,27.5 219.88283,24.1 C215.68283,20.7 209.14883,19 200.28283,19 C192.28283,19 186.14883,20.6 181.88283,23.8 C177.61583,26.9333 175.21583,31.3667 174.68283,37.1 L193.68283,40 C193.74883,37.7333 194.24883,36.1667 195.18283,35.3 C196.11583,34.3667 197.38283,33.9 198.98283,33.9 C200.44883,33.9 201.54883,34.3333 202.28283,35.2 C203.08283,36.0667 203.48283,37.2667 203.48283,38.8 L203.48283,40.8 L193.58283,43 C186.58283,44.5333 181.58283,46.5667 178.58283,49.1 C175.58283,51.5667 174.08283,54.9 174.08283,59.1 C174.08283,62.9667 175.34883,65.933 177.88283,68 C180.41583,70 184.28283,71 189.48283,71 C193.88283,71 197.54883,70.267 200.48283,68.8 C203.48283,67.267 205.74883,65.2 207.28283,62.6 C208.21583,65.333 210.04883,67.433 212.78283,68.9 C215.51583,70.3 218.91583,71 222.98283,71 C225.64883,71 228.11583,70.333 230.38283,69 L232.18283,57.3 Z M202.28283,57.3 C201.48283,58.1 200.44883,58.5 199.18283,58.5 C198.18283,58.5 197.34883,58.2 196.68283,57.6 C196.01583,57 195.68283,56.1333 195.68283,55 C195.68283,53.7333 196.08283,52.6667 196.88283,51.8 C197.68283,50.8667 198.78283,50.2 200.18283,49.8 L203.48283,48.8 L203.48283,53.6 C203.48283,55.2 203.08283,56.4333 202.28283,57.3 Z" id="Shape"></path>
                <path d="M321.76683,54.6 C321.16683,53.6667 320.86683,52.1667 320.86683,50.1 L320.86683,-7.10542736e-15 L297.86683,-7.10542736e-15 L297.86683,53.6 C297.86683,59.8667 299.19983,64.333 301.86683,67 C304.53383,69.667 308.96683,71 315.16683,71 C317.43383,71 319.76683,70.7 322.16683,70.1 C324.56683,69.5 326.36683,68.733 327.56683,67.8 L328.56683,55.4 C327.36683,55.7333 326.16683,55.9 324.96683,55.9 C323.43383,55.9 322.36683,55.4667 321.76683,54.6 Z" id="Path"></path>
                <path d="M384.34883,43.4 C384.34883,45.9333 384.18183,47.9333 383.84883,49.4 L352.04883,49.4 C352.38183,51.8667 353.08183,53.5333 354.14883,54.4 C355.21583,55.2667 356.81583,55.7 358.94883,55.7 C362.21583,55.7 364.21583,54.2667 364.94883,51.4 L383.44883,56.4 C382.31583,61.2 379.51583,64.833 375.04883,67.3 C370.64883,69.767 365.28183,71 358.94883,71 C349.48183,71 342.28183,68.767 337.34883,64.3 C332.48183,59.8333 330.04883,53.4 330.04883,45 C330.04883,36.7333 332.44883,30.3333 337.24883,25.8 C342.11583,21.2667 348.94883,19 357.74883,19 C366.34883,19 372.91583,21.2 377.44883,25.6 C382.04883,30 384.34883,35.9333 384.34883,43.4 L384.34883,43.4 Z M357.84883,34.2 C356.11583,34.2 354.78183,34.7 353.84883,35.7 C352.91583,36.7 352.31583,38.4333 352.04883,40.9 L362.84883,40.9 C362.64883,38.6333 362.14883,36.9667 361.34883,35.9 C360.61583,34.7667 359.44883,34.2 357.84883,34.2 Z" id="Shape"></path>
                <path d="M132.80683,108.6 L140.90683,108.6 C143.83983,108.6 145.90683,109.067 147.10683,110 C148.37383,110.933 149.00683,112.5 149.00683,114.7 C149.00683,116.967 148.37383,118.567 147.10683,119.5 C145.90683,120.367 143.83983,120.8 140.90683,120.8 L109.80683,120.8 L109.80683,158 L132.60683,158 L132.60683,136.1 L139.00683,136.1 L150.70683,158 L176.00683,158 L160.40683,133.6 C168.33983,130.267 172.30683,123.767 172.30683,114.1 C172.30683,106.767 170.03983,101.267 165.50683,97.6 C161.03983,93.867 154.40683,92 145.60683,92 L132.80683,92 C102.92983,92 87.7798304,102.879 73.2778304,113.293 C59.6278304,123.095 46.5508304,132.485 22.3068304,132 C5.47383043,134.667 -18.0931696,140 22.3068304,140 C46.6828304,140 59.7588304,132.684 73.2878304,125.115 C87.7858304,117.003 102.80383,108.6 132.80683,108.6 L132.80683,108.6 Z" id="Path"></path>
                <path d="M350.61883,158 L350.61883,88 L327.61883,88 L327.61883,116.4 C326.28483,113.467 324.45183,111.167 322.11883,109.5 C319.78483,107.833 316.91883,107 313.51883,107 C307.45183,107 302.71883,109.3 299.31883,113.9 C295.98483,118.5 294.31883,124.967 294.31883,133.3 C294.31883,141.5 295.95183,147.833 299.21883,152.3 C302.55183,156.767 307.28483,159 313.41883,159 C317.15183,159 320.35183,158.033 323.01883,156.1 C325.68483,154.167 327.75183,151.5 329.21883,148.1 L329.91883,158 L350.61883,158 Z M326.31883,140.7 C325.51883,142.167 324.31883,142.9 322.71883,142.9 C320.98483,142.9 319.68483,142.2 318.81883,140.8 C317.95183,139.333 317.51883,136.733 317.51883,133 C317.51883,129.267 317.95183,126.7 318.81883,125.3 C319.68483,123.9 320.98483,123.2 322.71883,123.2 C324.38483,123.2 325.61883,123.967 326.41883,125.5 C327.21883,127.033 327.61883,129.4 327.61883,132.6 L327.61883,133.4 C327.61883,136.733 327.18483,139.167 326.31883,140.7 L326.31883,140.7 Z" id="Shape"></path>
                <path d="M231.11483,137.4 C231.44783,135.933 231.61483,133.933 231.61483,131.4 C231.61483,123.933 229.31483,118 224.71483,113.6 C220.18083,109.2 213.61483,107 205.01483,107 C196.21483,107 189.38083,109.267 184.51483,113.8 C179.71483,118.333 177.31483,124.733 177.31483,133 C177.31483,141.4 179.74783,147.833 184.61483,152.3 C189.54783,156.767 196.74783,159 206.21483,159 C212.54783,159 217.91483,157.767 222.31483,155.3 C226.78083,152.833 229.58083,149.2 230.71483,144.4 L212.21483,139.4 C211.48083,142.267 209.48083,143.7 206.21483,143.7 C204.08083,143.7 202.48083,143.267 201.41483,142.4 C200.34783,141.533 199.64783,139.867 199.31483,137.4 L231.11483,137.4 Z M201.11483,123.7 C202.04783,122.7 203.38083,122.2 205.11483,122.2 C206.71483,122.2 207.88083,122.767 208.61483,123.9 C209.41483,124.967 209.91483,126.633 210.11483,128.9 L199.31483,128.9 C199.58083,126.433 200.18083,124.7 201.11483,123.7 Z" id="Shape"></path>
                <path d="M290.81583,145.7 C291.94883,145.7 292.78183,145.567 293.31583,145.3 L291.51583,157 C289.24883,158.333 286.78183,159 284.11583,159 C280.04883,159 276.64883,158.3 273.91583,156.9 C271.18183,155.433 269.34883,153.333 268.41583,150.6 C266.88183,153.2 264.61583,155.267 261.61583,156.8 C258.68183,158.267 255.01583,159 250.61583,159 C245.41583,159 241.54883,158 239.01583,156 C236.48183,153.933 235.21583,150.967 235.21583,147.1 C235.21583,142.9 236.71583,139.567 239.71583,137.1 C242.71583,134.567 247.71583,132.533 254.71583,131 L264.61583,128.8 L264.61583,126.8 C264.61583,125.267 264.21583,124.067 263.41583,123.2 C262.68183,122.333 261.58183,121.9 260.11583,121.9 C258.51583,121.9 257.24883,122.367 256.31583,123.3 C255.38183,124.167 254.88183,125.733 254.81583,128 L235.81583,125.1 C236.34883,119.367 238.74883,114.933 243.01583,111.8 C247.28183,108.6 253.41583,107 261.41583,107 C270.28183,107 276.81583,108.7 281.01583,112.1 C285.28183,115.5 287.41583,120.667 287.41583,127.6 L287.41583,141.6 C287.41583,144.333 288.54883,145.7 290.81583,145.7 L290.81583,145.7 Z M260.31583,146.5 C261.58183,146.5 262.61583,146.1 263.41583,145.3 C264.21583,144.433 264.61583,143.2 264.61583,141.6 L264.61583,136.8 L261.31583,137.8 C259.91583,138.2 258.81583,138.867 258.01583,139.8 C257.21583,140.667 256.81583,141.733 256.81583,143 C256.81583,144.133 257.14883,145 257.81583,145.6 C258.48183,146.2 259.31583,146.5 260.31583,146.5 Z" id="Shape"></path>
                <path d="M400.21383,152.4 C397.94683,159.133 395.48083,164.433 392.81383,168.3 C390.14683,172.233 386.94683,175.067 383.21383,176.8 C379.48083,178.6 374.88083,179.5 369.41383,179.5 C363.21383,179.5 358.08083,178.4 354.01383,176.2 L358.21383,161.7 C359.28083,162.3 360.44683,162.733 361.71383,163 C362.98083,163.267 364.78083,163.4 367.11383,163.4 C369.24683,163.4 370.81383,163.2 371.81383,162.8 C372.88083,162.4 373.61383,161.7 374.01383,160.7 L374.31383,159.9 L368.01383,145.2 L353.71383,108 L378.81383,108 L383.31383,133.8 L385.21383,145.5 L387.41383,133.7 L392.41383,108 L414.91383,108 L400.21383,152.4 Z" id="Path"></path>
            </g>
            <path d="M69.7788087,46.4348138 C136.434809,34.0437138 183.278809,70.4348138 199.778809,27.4348138 L205.778809,30.9348138 C187.278809,75.9348138 141.278809,46.9895138 96.2788087,53.9348138 C150.778809,58.5079138 165.569809,86.4348138 171.278809,118.934814 C177.778809,155.934814 170.778809,213.525814 113.778809,223.934814 C56.7788087,234.343814 20.7130087,196.434814 7.2787387,151.934814 C-5.2498213,110.434814 3.1232487,58.8259138 69.7788087,46.4348138 Z" id="Path" fill="#99DFF5" fill-rule="nonzero"></path>
            <path d="M164.549809,95.0837138 C161.699809,89.6984138 158.310809,84.7760138 154.377809,80.4925138 C125.569809,49.1181138 62.5806087,47.1692138 33.6703087,79.8579138 C-21.4823913,142.218814 57.6191087,253.903814 131.248809,207.285814 C169.921809,182.800814 173.421809,112.558814 140.322809,81.7018138 C121.842809,64.4742138 96.8043087,61.0867138 75.6181087,67.9714138 C65.6696087,71.2043138 55.3607087,74.7173138 47.4887087,81.7171138 C2.8238487,121.433814 39.0451087,202.874814 98.0168087,197.618814 C129.144809,194.843814 147.251809,170.042814 147.899809,139.833814 C148.152809,128.060814 146.396809,115.176814 141.183809,104.452814 C136.361809,94.5341138 126.534809,92.0580138 129.686809,95.1045138 C174.318809,138.232814 113.782809,229.486814 54.9303087,178.530814 C21.2987087,149.411814 25.2046087,106.112814 50.7788087,85.2393138 C71.1131087,68.6425138 101.492809,61.8497138 129.304809,78.6540138 C194.388809,117.978814 143.337809,254.052814 56.3378087,199.188814 C16.8746087,174.301814 4.3938287,109.281814 41.5895087,76.6782138 C60.0197087,60.5232138 87.6322087,57.5451138 110.976809,61.9028138 C123.055809,64.1575138 134.767809,68.9677138 144.230809,76.9184138 C179.269809,106.358814 179.249809,179.337814 145.475809,209.890814 C144.506809,210.766814 143.512809,211.607814 142.495809,212.413814 C173.055809,191.103814 176.465809,148.462814 171.278809,118.934814 C169.809809,110.575814 167.740809,102.518814 164.549809,95.0837138 Z" id="Path" fill="#D9F6FF" fill-rule="nonzero"></path>
            <path d="M10.5855087,161.567814 C9.3628087,158.402814 8.2604087,155.186814 7.2787387,151.934814 C2.1404987,134.914814 0.517918702,116.193814 4.9896287,99.1758138 C22.8153087,48.7925138 80.7990087,42.4573138 126.502809,47.2434138 C130.243809,47.6353138 134.269809,48.2296138 138.444809,48.8460138 C161.160809,52.1995138 188.311809,56.2080138 198.295809,31.8344138 C199.717809,28.3637138 203.176809,31.2286138 198.397809,39.0564138 C194.591809,45.2891138 189.417809,49.6480138 182.522809,52.0943138 C169.106809,56.8543138 152.888809,54.3344138 138.020809,52.0243138 C133.187809,51.2734138 128.497809,50.5447138 124.093809,50.0954138 C68.2780087,44.4014138 1.9921487,60.6996138 4.6802587,130.040814 C5.0945887,140.727814 7.2413587,151.393814 10.5855087,161.567814 L10.5855087,161.567814 Z" id="Path" fill="#D9F6FF" fill-rule="nonzero"></path>
            <path d="M129.686809,91.1045138 C126.534809,88.0580138 136.361809,90.5341138 141.183809,100.452814 C146.396809,111.176814 148.152809,124.060814 147.899809,135.833814 C147.251809,166.042814 129.144809,190.843814 98.0168087,193.618814 C39.0451087,198.874814 2.8238487,117.433814 47.4887087,77.7171138 C55.3607087,70.7173138 65.6696087,67.2043138 75.6181087,63.9714138 C96.8043087,57.0867138 121.842809,60.4742138 140.322809,77.7018138 C173.421809,108.558814 169.921809,178.800814 131.248809,203.285814 C57.6191087,249.903814 -21.4823913,138.218814 33.6703087,75.8579138 C46.0413087,61.8702138 64.6521087,54.2248138 84.1546087,52.5133138 C84.1955087,52.4873138 84.2369087,52.4612138 84.2787087,52.4349138 C105.789809,48.4722138 125.592809,51.1324138 142.879809,53.4547138 C171.398809,57.2858138 193.071809,60.1973138 204.278809,30.9349138 C205.427809,27.9348138 207.952809,29.4348138 206.778809,32.4349138 C197.431809,68.7859138 159.314809,62.1643138 127.790809,56.6877138 C122.763809,55.8145138 117.904809,54.9704138 113.356809,54.3342138 C129.326809,57.7778138 144.048809,65.2440138 154.377809,76.4925138 C181.799809,106.357814 182.764809,167.278814 159.127809,199.639814 C131.575809,237.360814 72.8406087,237.634814 38.4468087,209.155814 C7.1480987,183.238814 -8.7100913,134.272814 4.9074787,95.4096138 C22.6365087,44.8121138 80.7285087,38.4499138 126.502809,43.2434138 C130.243809,43.6353138 134.269809,44.2296138 138.444809,44.8460138 C161.160809,48.1995138 188.311809,52.2080138 198.295809,27.8344138 C199.717809,24.3637138 203.176809,27.2286138 198.397809,35.0564138 C194.591809,41.2891138 189.417809,45.6480138 182.522809,48.0943138 C169.106809,52.8543138 152.888809,50.3344138 138.020809,48.0243138 C133.187809,47.2734138 128.497809,46.5447138 124.093809,46.0954138 C68.2780087,40.4014138 1.9921487,56.6996138 4.6802587,126.040814 C5.1513287,138.191814 7.8618087,150.314814 12.0254087,161.718814 C17.0708087,175.538814 24.7457087,188.464814 35.2837087,198.804814 C44.3905087,207.740814 55.4763087,214.539814 67.5765087,218.587814 C93.0480087,227.109814 124.948809,224.459814 145.475809,205.890814 C179.249809,175.337814 179.269809,102.358814 144.230809,72.9184138 C134.767809,64.9677138 123.055809,60.1575138 110.976809,57.9028138 C87.6322087,53.5451138 60.0197087,56.5232138 41.5895087,72.6782138 C4.3938287,105.281814 16.8746087,170.301814 56.3378087,195.188814 C143.337809,250.052814 194.388809,113.978814 129.304809,74.6540138 C101.492809,57.8497138 71.1131087,64.6425138 50.7788087,81.2393138 C25.2046087,102.112814 21.2987087,145.411814 54.9303087,174.530814 C113.782809,225.486814 174.318809,134.232814 129.686809,91.1045138 Z" id="Path" fill="#478EA5" fill-rule="nonzero"></path>
            <path d="M50.9032087,109.554814 C61.4100087,89.7768138 100.292809,83.1984138 116.901809,96.0003138 C131.666809,107.380814 135.869809,128.205814 126.885809,144.610814 C120.565809,156.150814 110.105809,158.045814 97.1731087,160.389814 L97.1514087,160.392814 C96.6317087,160.487814 96.1081087,160.582814 95.5806087,160.678814 C93.6747087,161.026814 91.8863087,161.386814 90.1865087,161.728814 C79.3095087,163.919814 72.0618087,165.379814 60.8864087,158.165814 C45.2881087,148.094814 41.9783087,126.354814 50.9032087,109.554814 Z" id="Path" fill="#478EA5" fill-rule="nonzero"></path>
            <path d="M55.5148087,112.227814 C64.8951087,96.4556138 98.5538087,90.6488138 112.682809,100.486814 C125.243809,109.231814 128.540809,125.597814 120.527809,138.684814 C112.951809,151.057814 73.8436087,156.493814 63.3594087,150.424814 C50.0585087,142.726814 47.5469087,125.624814 55.5148087,112.227814 Z" id="Path" fill="#FFFFFF" fill-rule="nonzero"></path>
            <path d="M124.752809,120.842814 C125.328809,126.818814 123.974809,133.054814 120.527809,138.684814 C112.951809,151.057814 73.8436087,156.493814 63.3594087,150.424814 C52.9683087,144.410814 49.1622087,132.657814 51.7933087,121.414814 C52.2949087,138.103814 65.7901087,142.434814 92.2788087,142.434814 C110.724809,142.434814 123.641809,135.629814 124.752809,120.842814 L124.752809,120.842814 Z" id="Path" fill="#F0F0F0" fill-rule="nonzero"></path>
            <path d="M121.533809,86.3048138 C112.136809,81.7154138 101.335809,79.7910138 88.8580087,80.7074138 C87.3759087,80.8163138 86.0064087,79.8692138 85.6383087,78.4294138 L84.7993087,75.1469138 C84.3840087,73.5224138 85.3723087,71.8983138 87.0336087,71.6718138 C94.0625087,70.7135138 112.036809,69.8014138 125.221809,82.5162138 C127.573809,84.7846138 124.470809,87.7390138 121.533809,86.3048138 L121.533809,86.3048138 Z" id="Path" fill="#1D4F5F" fill-rule="nonzero"></path>
            <path d="M73.5840087,85.8897138 C62.2885087,88.9347138 53.9274087,95.6587138 48.8906087,105.622814 C47.3417087,108.686814 42.7840087,108.309814 43.5200087,104.955814 C47.6424087,86.1737138 64.3491087,77.8959138 71.2468087,75.2305138 C72.8610087,74.6068138 74.5424087,75.6356138 74.8905087,77.3307138 L75.9026087,82.2590138 C76.2359087,83.8820138 75.1838087,85.4584138 73.5840087,85.8897138 Z" id="Path" fill="#1D4F5F" fill-rule="nonzero"></path>
            <path d="M98.3728087,124.563814 C99.4278087,129.702814 96.1171087,134.724814 90.9777087,135.780814 C85.8382087,136.835814 80.8162087,133.525814 79.7607087,128.385814 C78.7053087,123.246814 82.0160087,118.224814 87.1554087,117.168814 C92.2948087,116.113814 97.3168087,119.423814 98.3728087,124.563814 L98.3728087,124.563814 Z" id="Path" fill="#1D4F5F" fill-rule="nonzero"></path>
            <path d="M125.056809,168.807814 C123.571809,165.493814 120.847809,161.614814 116.473809,160.654814 C115.439809,160.426814 114.991809,158.997814 115.996809,158.662814 C119.030809,157.651814 122.417809,157.714814 124.930809,159.434814 C128.137809,162.684814 128.375809,165.161814 126.987809,168.844814 C126.666809,169.698814 125.430809,169.640814 125.056809,168.807814 Z" id="Path" fill="#1D4F5F" fill-rule="nonzero"></path>
            <path d="M119.345809,163.333814 C113.686809,176.149814 87.4695087,182.773814 72.2278087,172.492814 C72.2278087,172.492814 70.1691087,172.383814 70.5508087,174.346814 C73.9024087,178.312814 85.3662087,185.872814 98.8398087,183.619814 C112.007809,181.417814 120.103809,170.637814 121.785809,165.406814 C121.404809,163.443814 119.345809,163.333814 119.345809,163.333814 L119.345809,163.333814 Z" id="Path" fill="#1D4F5F" fill-rule="nonzero"></path>
            <path d="M77.7746087,167.542814 C72.2791087,169.312814 66.7615087,172.505814 67.1121087,179.583814 C67.1597087,180.545814 66.0858087,181.134814 65.5477087,180.335814 C63.3443087,177.066814 62.9173087,172.557814 65.7787087,168.934814 C68.8024087,165.106814 74.2037087,164.534814 77.9369087,165.959814 C78.7267087,166.260814 78.5793087,167.283814 77.7746087,167.542814 L77.7746087,167.542814 Z" id="Path" fill="#1D4F5F" fill-rule="nonzero"></path>
            <path d="M89.4907087,116.981814 C92.6749087,117.121814 95.5743087,118.866814 97.2029087,121.565814 C96.6101087,122.770814 95.4861087,123.699814 94.0683087,123.990814 C91.6338087,124.490814 89.2550087,122.922814 88.7550087,120.487814 C88.4941087,119.217814 88.7963087,117.962814 89.4907087,116.981814 L89.4907087,116.981814 Z" id="Path" fill="#99DFF5" fill-rule="nonzero"></path>
            <path d="M196.344809,26.5102138 L209.126809,32.3202138 C211.679809,33.4805138 214.686809,32.3152138 215.791809,29.7379138 L222.330809,14.4793138 C223.409809,11.9612138 222.261809,9.04351385 219.755809,7.93631385 L207.289809,2.42799385 C204.788809,1.32271385 201.862809,2.43211385 200.723809,4.91815385 L193.868809,19.8751138 C192.715809,22.3909138 193.825809,25.3649138 196.344809,26.5102138 L196.344809,26.5102138 Z" id="Path" fill="#D3E0E3" fill-rule="nonzero"></path>
            <path d="M189.102809,146.159814 L196.028809,158.372814 C197.411809,160.811814 200.529809,161.636814 202.938809,160.201814 L217.197809,151.700814 C219.550809,150.297814 220.336809,147.262814 218.960809,144.893814 L212.112809,133.109814 C210.738809,130.745814 207.720809,129.923814 205.336809,131.264814 L190.999809,139.335814 C188.587809,140.693814 187.737809,143.751814 189.102809,146.159814 L189.102809,146.159814 Z" id="Path" fill="#D3E0E3" fill-rule="nonzero"></path>
            <path d="M195.778809,24.9348138 C197.378809,21.7348138 202.445809,11.2681138 204.778809,6.43481385 L222.278809,13.9348138 L222.278809,10.4348138 L204.778809,1.43481385 L200.278809,4.43481385 L192.278809,22.9348138 L195.778809,24.9348138 Z" id="Path" fill="#EFFCFF" fill-rule="nonzero"></path>
            <path d="M189.570809,144.552814 C192.746809,142.903814 202.997809,137.414814 207.726809,134.875814 L217.475809,151.229814 L219.532809,148.397814 L210.665809,130.830814 L205.261809,130.612814 L187.914809,140.876814 L189.570809,144.552814 Z" id="Path" fill="#EFFCFF" fill-rule="nonzero"></path>
            <path d="M209.920809,2.57931385 C210.669809,2.93395385 210.988809,3.82837385 210.633809,4.57705385 L206.133809,14.0770138 C205.779809,14.8257138 204.884809,15.1452138 204.136809,14.7905138 C203.387809,14.4359138 203.068809,13.5415138 203.422809,12.7928138 L207.922809,3.29279385 C208.277809,2.54411385 209.171809,2.22467385 209.920809,2.57931385 L209.920809,2.57931385 Z" id="Path" fill="#2A373A" fill-rule="nonzero"></path>
            <path d="M213.920809,4.57931385 C214.669809,4.93395385 214.988809,5.82837385 214.633809,6.57705385 L210.133809,16.0770138 C209.779809,16.8257138 208.884809,17.1452138 208.136809,16.7905138 C207.387809,16.4359138 207.068809,15.5415138 207.422809,14.7928138 L211.922809,5.29279385 C212.277809,4.54411385 213.171809,4.22467385 213.920809,4.57931385 L213.920809,4.57931385 Z" id="Path" fill="#2A373A" fill-rule="nonzero"></path>
            <path d="M218.633809,8.57701385 C218.988809,7.82841385 218.669809,6.93395385 217.920809,6.57931385 C217.171809,6.22467385 216.277809,6.54411385 215.922809,7.29279385 L211.422809,16.7928138 C211.068809,17.5415138 211.387809,18.4359138 212.136809,18.7905138 C212.884809,19.1452138 213.779809,18.8257138 214.133809,18.0770138 L218.633809,8.57701385 Z" id="Path" fill="#2A373A" fill-rule="nonzero"></path>
            <path d="M198.905809,4.08506385 C200.500809,0.604623848 204.595809,-0.948536152 208.097809,0.598843848 L221.564809,7.10715385 C225.072809,8.65731385 226.679809,12.7420138 225.168809,16.2674138 L217.629809,33.5260138 C216.083809,37.1341138 211.872809,38.7655138 208.298809,37.1411138 L194.516809,30.3311138 C190.989809,28.7278138 189.435809,24.5642138 191.050809,21.0420138 L198.905809,4.08506385 Z M206.481809,4.25759385 C204.980809,3.59442385 203.225809,4.26006385 202.541809,5.75168385 L195.686809,20.7086138 C194.994809,22.2181138 195.660809,24.0025138 197.172809,24.6897138 L209.954809,30.4997138 C211.485809,31.1958138 213.290809,30.4967138 213.953809,28.9503138 L220.492809,13.6917138 C221.139809,12.1808138 220.451809,10.4302138 218.947809,9.76591385 L206.481809,4.25759385 Z" id="Shape" fill="#67777B"></path>
            <path d="M204.355809,129.522814 C207.692809,127.644814 211.918809,128.794814 213.841809,132.105814 L220.910809,145.285814 C222.837809,148.601814 221.737809,152.851814 218.442809,154.815814 L202.198809,164.346814 C198.827809,166.356814 194.461809,165.201814 192.525809,161.786814 L185.378809,148.176814 C183.467809,144.805814 184.657809,140.524814 188.033809,138.623814 L204.355809,129.522814 Z M210.383809,134.114814 C209.558809,132.696814 207.747809,132.203814 206.317809,133.007814 L196.654809,138.447814 L206.488809,155.756814 L216.173809,149.982814 C217.585809,149.141814 218.056809,147.319814 217.231809,145.898814 L210.383809,134.114814 Z M203.052809,157.804814 L193.168809,140.409814 L191.980809,141.078814 C190.533809,141.893814 190.023809,143.728814 190.842809,145.172814 L197.768809,157.386814 C198.598809,158.849814 200.469809,159.344814 201.914809,158.483814 L203.052809,157.804814 Z" id="Shape" fill="#67777B"></path>
        </g>
    </g>
</svg>