<svg fill="none" height="234" viewBox="0 0 540 234" width="540" xmlns="http://www.w3.org/2000/svg" xmlns:xlink="http://www.w3.org/1999/xlink"><linearGradient id="a" gradientUnits="userSpaceOnUse" x1="177" x2="231" y1="140" y2="140"><stop offset="0" stop-color="#1d4f5f"/><stop offset="1" stop-color="#404040"/></linearGradient><g fill="url(#a)"><path clip-rule="evenodd" d="m392.465 55c6.066 0 10.766 2.3 14.1 6.9 3.4 4.6 5.1 11.0667 5.1 19.4 0 8.2-1.667 14.5333-5 19-3.267 4.467-7.967 6.7-14.1 6.7-4 0-7.434-1.133-10.3-3.4-2.8-2.267-4.834-5.3667-6.1-9.3l-.6 11.7h-20.2v-70h23v28.4c1.333-2.9333 3.166-5.2333 5.5-6.9 2.333-1.6667 5.2-2.5 8.6-2.5zm-9.2 35.9c1.733 0 3.033-.7 3.9-2.1.866-1.4667 1.3-4.0667 1.3-7.8s-.434-6.3-1.3-7.7c-.867-1.4-2.167-2.1-3.9-2.1-1.667 0-2.9.7667-3.7 2.3s-1.2 3.9-1.2 7.1v.8c0 3.3333.4 5.7667 1.2 7.3.866 1.4667 2.1 2.2 3.7 2.2z" fill-rule="evenodd"/><path d="m261.5 107c16.933 0 27.1-7.0667 30.5-21.2l-20.6-5.3c-.4 3.2-1.3 5.5-2.7 6.9s-3.667 2.1-6.8 2.1c-3.467 0-6.033-1.3333-7.7-4s-2.5-6.8333-2.5-12.5.867-9.8333 2.6-12.5 4.333-4 7.8-4c2.933 0 5.1.7 6.5 2.1s2.367 4.1333 2.9 8.2l20-7.8c-1.333-6.7333-4.733-11.7333-10.2-15-5.467-3.3333-12.067-5-19.8-5-6.933 0-12.933 1.3333-18 4-5 2.6667-8.867 6.5667-11.6 11.7-2.667 5.0667-4 11.1667-4 18.3s1.333 13.2667 4 18.4c2.733 5.0667 6.6 8.933 11.6 11.6 5.067 2.667 11.067 4 18 4z"/><path clip-rule="evenodd" d="m352.376 93.3c-.534.2667-1.367.4-2.5.4-2.267 0-3.4-1.3667-3.4-4.1v-14c0-6.9333-2.134-12.1-6.4-15.5-4.2-3.4-10.734-5.1-19.6-5.1-8 0-14.134 1.6-18.4 4.8-4.267 3.1333-6.667 7.5667-7.2 13.3l19 2.9c.066-2.2667.566-3.8333 1.5-4.7.933-.9333 2.2-1.4 3.8-1.4 1.466 0 2.566.4333 3.3 1.3.8.8667 1.2 2.0667 1.2 3.6v2l-9.9 2.2c-7 1.5333-12 3.5667-15 6.1-3 2.4667-4.5 5.8-4.5 10 0 3.8667 1.266 6.833 3.8 8.9 2.533 2 6.4 3 11.6 3 4.4 0 8.066-.733 11-2.2 3-1.533 5.266-3.6 6.8-6.2.933 2.733 2.766 4.833 5.5 6.3 2.733 1.4 6.133 2.1 10.2 2.1 2.666 0 5.133-.667 7.4-2zm-29.9 0c-.8.8-1.834 1.2-3.1 1.2-1 0-1.834-.3-2.5-.9-.667-.6-1-1.4667-1-2.6 0-1.2667.4-2.3333 1.2-3.2.8-.9333 1.9-1.6 3.3-2l3.3-1v4.8c0 1.6-.4 2.8333-1.2 3.7z" fill-rule="evenodd"/><path d="m441.96 90.6c-.6-.9333-.9-2.4333-.9-4.5v-50.1h-23v53.6c0 6.2667 1.333 10.733 4 13.4s7.1 4 13.3 4c2.267 0 4.6-.3 7-.9s4.2-1.367 5.4-2.3l1-12.4c-1.2.3333-2.4.5-3.6.5-1.533 0-2.6-.4333-3.2-1.3z"/><path clip-rule="evenodd" d="m504.542 79.4c0 2.5333-.167 4.5333-.5 6h-31.8c.333 2.4667 1.033 4.1333 2.1 5s2.667 1.3 4.8 1.3c3.267 0 5.267-1.4333 6-4.3l18.5 5c-1.133 4.8-3.933 8.433-8.4 10.9-4.4 2.467-9.767 3.7-16.1 3.7-9.467 0-16.667-2.233-21.6-6.7-4.867-4.4667-7.3-10.9-7.3-19.3 0-8.2667 2.4-14.6667 7.2-19.2 4.867-4.5333 11.7-6.8 20.5-6.8 8.6 0 15.167 2.2 19.7 6.6 4.6 4.4 6.9 10.3333 6.9 17.8zm-26.5-9.2c-1.733 0-3.067.5-4 1.5s-1.533 2.7333-1.8 5.2h10.8c-.2-2.2667-.7-3.9333-1.5-5-.733-1.1333-1.9-1.7-3.5-1.7z" fill-rule="evenodd"/><path d="m253 144.6h8.1c2.933 0 5 .467 6.2 1.4 1.267.933 1.9 2.5 1.9 4.7 0 2.267-.633 3.867-1.9 4.8-1.2.867-3.267 1.3-6.2 1.3h-31.1v37.2h22.8v-21.9h6.4l11.7 21.9h25.3l-15.6-24.4c7.933-3.333 11.9-9.833 11.9-19.5 0-7.333-2.267-12.833-6.8-16.5-4.467-3.733-11.1-5.6-19.9-5.6h-12.8c-29.877 0-45.027 10.879-59.529 21.293-13.65 9.802-26.727 19.192-50.971 18.707-16.833 2.667-40.4 8 0 8 24.376 0 37.452-7.316 50.981-14.885 14.498-8.112 29.516-16.515 59.519-16.515z"/><path clip-rule="evenodd" d="m470.812 194v-70h-23v28.4c-1.334-2.933-3.167-5.233-5.5-6.9-2.334-1.667-5.2-2.5-8.6-2.5-6.067 0-10.8 2.3-14.2 6.9-3.334 4.6-5 11.067-5 19.4 0 8.2 1.633 14.533 4.9 19 3.333 4.467 8.066 6.7 14.2 6.7 3.733 0 6.933-.967 9.6-2.9 2.666-1.933 4.733-4.6 6.2-8l.7 9.9zm-24.3-17.3c-.8 1.467-2 2.2-3.6 2.2-1.734 0-3.034-.7-3.9-2.1-.867-1.467-1.3-4.067-1.3-7.8s.433-6.3 1.3-7.7c.866-1.4 2.166-2.1 3.9-2.1 1.666 0 2.9.767 3.7 2.3s1.2 3.9 1.2 7.1v.8c0 3.333-.434 5.767-1.3 7.3z" fill-rule="evenodd"/><path clip-rule="evenodd" d="m351.308 173.4c.333-1.467.5-3.467.5-6 0-7.467-2.3-13.4-6.9-17.8-4.534-4.4-11.1-6.6-19.7-6.6-8.8 0-15.634 2.267-20.5 6.8-4.8 4.533-7.2 10.933-7.2 19.2 0 8.4 2.433 14.833 7.3 19.3 4.933 4.467 12.133 6.7 21.6 6.7 6.333 0 11.7-1.233 16.1-3.7 4.466-2.467 7.266-6.1 8.4-10.9l-18.5-5c-.734 2.867-2.734 4.3-6 4.3-2.134 0-3.734-.433-4.8-1.3-1.067-.867-1.767-2.533-2.1-5zm-30-13.7c.933-1 2.266-1.5 4-1.5 1.6 0 2.766.567 3.5 1.7.8 1.067 1.3 2.733 1.5 5h-10.8c.266-2.467.866-4.2 1.8-5.2z" fill-rule="evenodd"/><path clip-rule="evenodd" d="m411.009 181.7c1.133 0 1.966-.133 2.5-.4l-1.8 11.7c-2.267 1.333-4.734 2-7.4 2-4.067 0-7.467-.7-10.2-2.1-2.734-1.467-4.567-3.567-5.5-6.3-1.534 2.6-3.8 4.667-6.8 6.2-2.934 1.467-6.6 2.2-11 2.2-5.2 0-9.067-1-11.6-3-2.534-2.067-3.8-5.033-3.8-8.9 0-4.2 1.5-7.533 4.5-10 3-2.533 8-4.567 15-6.1l9.9-2.2v-2c0-1.533-.4-2.733-1.2-3.6-.734-.867-1.834-1.3-3.3-1.3-1.6 0-2.867.467-3.8 1.4-.934.867-1.434 2.433-1.5 4.7l-19-2.9c.533-5.733 2.933-10.167 7.2-13.3 4.266-3.2 10.4-4.8 18.4-4.8 8.866 0 15.4 1.7 19.6 5.1 4.266 3.4 6.4 8.567 6.4 15.5v14c0 2.733 1.133 4.1 3.4 4.1zm-30.5.8c1.266 0 2.3-.4 3.1-1.2.8-.867 1.2-2.1 1.2-3.7v-4.8l-3.3 1c-1.4.4-2.5 1.067-3.3 2-.8.867-1.2 1.933-1.2 3.2 0 1.133.333 2 1 2.6.666.6 1.5.9 2.5.9z" fill-rule="evenodd"/><path d="m520.407 188.4c-2.267 6.733-4.733 12.033-7.4 15.9-2.667 3.933-5.867 6.767-9.6 8.5-3.733 1.8-8.333 2.7-13.8 2.7-6.2 0-11.333-1.1-15.4-3.3l4.2-14.5c1.067.6 2.233 1.033 3.5 1.3s3.067.4 5.4.4c2.133 0 3.7-.2 4.7-.6 1.067-.4 1.8-1.1 2.2-2.1l.3-.8-6.3-14.7-14.3-37.2h25.1l4.5 25.8 1.9 11.7 2.2-11.8 5-25.7h22.5z"/></g><path d="m72 49c66.656-12.3911 113.5 24 130-19l6 3.5c-18.5 45-64.5 16.0547-109.5 23 54.5 4.5731 69.291 32.5 75 65 6.5 37-.5 94.591-57.5 105s-93.0658-27.5-106.50007-72c-12.52856-41.5-4.15549-93.1089 62.50007-105.5z" fill="#99dff5"/><path d="m166.771 97.6489c-2.85-5.3853-6.239-10.3077-10.172-14.5912-28.808-31.3744-91.7972-33.3233-120.7075-.6346-55.1527 62.3609 23.9488 174.0459 97.5785 127.4279 38.673-24.485 42.173-94.727 9.074-125.584-18.48-17.2276-43.5185-20.6151-64.7047-13.7304-9.9485 3.2329-20.2574 6.7459-28.1294 13.7457-44.66486 39.7167-8.4436 121.1577 50.5281 115.9017 31.128-2.775 49.235-27.576 49.883-57.785.253-11.773-1.503-24.657-6.716-35.381-4.822-9.9187-14.649-12.3948-11.497-9.3483 44.632 43.1283-15.904 134.3823-74.7565 83.4263-33.6316-29.119-29.7257-72.418-4.1515-93.2915 20.3343-16.5968 50.714-23.3896 78.526-6.5853 65.084 39.3248 14.033 175.3988-72.967 120.5348-39.4632-24.887-51.94398-89.907-14.7483-122.5106 18.4302-16.155 46.0427-19.1331 69.3873-14.7754 12.079 2.2547 23.791 7.0649 33.254 15.0156 35.039 29.4404 35.019 102.4194 1.245 132.9724-.969.876-1.963 1.717-2.98 2.523 30.56-21.31 33.97-63.951 28.783-93.479-1.469-8.359-3.538-16.416-6.729-23.8511z" fill="#d9f6ff"/><path d="m12.8067 164.133c-1.2227-3.165-2.3251-6.381-3.30677-9.633-5.13824-17.02-6.76082-35.741-2.28911-52.759 17.82568-50.3833 75.80938-56.7185 121.51318-51.9324 3.741.3919 7.767.9862 11.942 1.6026 22.716 3.3535 49.867 7.362 59.851-17.0116 1.422-3.4707 4.881-.6058.102 7.222-3.806 6.2327-8.98 10.5916-15.875 13.0379-13.416 4.76-29.634 2.2401-44.502-.07-4.833-.7509-9.523-1.4796-13.927-1.9289-55.8158-5.694-122.10166 10.6042-119.41355 79.9454.41433 10.687 2.5611 21.353 5.90525 31.527z" fill="#d9f6ff"/><path d="m131.908 93.6697c-3.152-3.0465 6.675-.5704 11.497 9.3483 5.213 10.724 6.969 23.608 6.716 35.381-.648 30.209-18.755 55.01-49.883 57.785-58.9717 5.256-95.19296-76.185-50.5281-115.9017 7.872-6.9998 18.1809-10.5128 28.1294-13.7457 21.1862-6.8847 46.2247-3.4972 64.7047 13.7304 33.099 30.857 29.599 101.099-9.074 125.584-73.6297 46.618-152.7312-65.067-97.5785-127.4279 12.371-13.9877 30.9818-21.6331 50.4843-23.3446.0409-.026.0823-.0521.1241-.0784 21.5111-3.9627 41.3141-1.3025 58.6011 1.0198 28.519 3.8311 50.192 6.7426 61.399-22.5198 1.149-3.0001 3.674-1.5001 2.5 1.5-9.347 36.351-47.464 29.7294-78.988 24.2528-5.027-.8732-9.886-1.7173-14.434-2.3535 15.97 3.4436 30.692 10.9098 41.021 22.1583 27.422 29.8653 28.387 90.7863 4.75 123.1473-27.552 37.721-86.2872 37.995-120.681 9.516-31.29871-25.917-47.1569-74.883-33.53933-113.7462 17.72903-50.5975 75.82103-56.9597 121.59533-52.1662 3.741.3919 7.767.9862 11.942 1.6026 22.716 3.3535 49.867 7.362 59.851-17.0116 1.422-3.4707 4.881-.6058.102 7.222-3.806 6.2327-8.98 10.5916-15.875 13.0379-13.416 4.76-29.634 2.2401-44.502-.07-4.833-.7509-9.523-1.4796-13.927-1.9289-55.8158-5.694-122.10166 10.6042-119.41355 79.9454.47107 12.151 3.18155 24.274 7.34515 35.678 5.0454 13.82 12.7203 26.746 23.2583 37.086 9.1068 8.936 20.1926 15.735 32.2928 19.783 25.4715 8.522 57.3723 5.872 77.8993-12.697 33.774-30.553 33.794-103.532-1.245-132.9724-9.463-7.9507-21.175-12.7609-33.254-15.0156-23.3446-4.3577-50.9571-1.3796-69.3873 14.7754-37.19568 32.6036-24.7149 97.6236 14.7483 122.5106 87 54.864 138.051-81.21 72.967-120.5348-27.812-16.8043-58.1917-10.0115-78.526 6.5853-25.5742 20.8735-29.4801 64.1725 4.1515 93.2915 58.8525 50.956 119.3885-40.298 74.7565-83.4263z" fill="#478ea5"/><path d="m53.1244 112.12c10.5068-19.778 49.3896-26.3564 65.9986-13.5545 14.765 11.3805 18.968 32.2055 9.984 48.6105-6.32 11.54-16.78 13.435-29.7127 15.779l-.0217.003c-.5197.095-1.0433.19-1.5708.286-1.9059.348-3.6943.708-5.3941 1.05-10.877 2.191-18.1247 3.651-29.3001-3.563-15.5983-10.071-18.9081-31.811-9.9832-48.611z" fill="#478ea5"/><path d="m57.736 114.793c9.3803-15.7722 43.039-21.579 57.168-11.741 12.561 8.745 15.858 25.111 7.845 38.198-7.576 12.373-46.6842 17.809-57.1684 11.74-13.3009-7.698-15.8125-24.8-7.8446-38.197z" fill="#fff"/><path d="m126.974 123.408c.576 5.976-.778 12.212-4.225 17.842-7.576 12.373-46.6842 17.809-57.1684 11.74-10.3911-6.014-14.1972-17.767-11.5661-29.01.5016 16.689 13.9968 21.02 40.4855 21.02 18.446 0 31.363-6.805 32.474-21.592z" fill="#f0f0f0"/><path d="m123.755 88.87c-9.397-4.5894-20.198-6.5138-32.6758-5.5974-1.4821.1089-2.8516-.8382-3.2197-2.278l-.839-3.2825c-.4153-1.6245.573-3.2486 2.2343-3.4751 7.0289-.9583 25.0032-1.8704 38.1882 10.8444 2.352 2.2684-.751 5.2228-3.688 3.7886z" fill="#1d4f5f"/><path d="m75.8052 88.4549c-11.2955 3.045-19.6566 9.769-24.6934 19.7331-1.5489 3.064-6.1066 2.687-5.3706-.667 4.1224-18.7821 20.8291-27.0599 27.7268-29.7253 1.6142-.6237 3.2956.4051 3.6437 2.1002l1.0121 4.9283c.3333 1.623-.7188 3.1994-2.3186 3.6307z" fill="#1d4f5f"/><path d="m100.594 127.129c1.055 5.139-2.2557 10.161-7.3951 11.217-5.1395 1.055-10.1615-2.255-11.217-7.395-1.0554-5.139 2.2553-10.161 7.3947-11.217 5.1394-1.055 10.1614 2.255 11.2174 7.395z" fill="#1d4f5f"/><path d="m127.278 171.373c-1.485-3.314-4.209-7.193-8.583-8.153-1.034-.228-1.482-1.657-.477-1.992 3.034-1.011 6.421-.948 8.934.772 3.207 3.25 3.445 5.727 2.057 9.41-.321.854-1.557.796-1.931-.037z" fill="#1d4f5f"/><path d="m121.567 165.899c-5.659 12.816-31.8763 19.44-47.118 9.159 0 0-2.0587-.109-1.677 1.854 3.3516 3.966 14.8154 11.526 28.289 9.273 13.168-2.202 21.264-12.982 22.946-18.213-.381-1.963-2.44-2.073-2.44-2.073z" fill="#1d4f5f"/><path d="m79.9958 170.108c-5.4955 1.77-11.0131 4.963-10.6625 12.041.0476.962-1.0263 1.551-1.5644.752-2.2034-3.269-2.6304-7.778.231-11.401 3.0237-3.828 8.425-4.4 12.1582-2.975.7898.301.6424 1.324-.1623 1.583z" fill="#1d4f5f"/><path d="m91.7119 119.547c3.1842.14 6.0836 1.885 7.7122 4.584-.5928 1.205-1.7168 2.134-3.1346 2.425-2.4345.5-4.8133-1.068-5.3133-3.503-.2609-1.27.0413-2.525.7357-3.506z" fill="#99dff5"/><path d="m198.566 29.0754 12.782 5.81c2.553 1.1603 5.56-.005 6.665-2.5823l6.539-15.2586c1.079-2.5181-.069-5.4358-2.575-6.543l-12.466-5.50832c-2.501-1.10528-5.427.00412-6.566 2.49016l-6.855 14.95696c-1.153 2.5158-.043 5.4898 2.476 6.6351z" fill="#d3e0e3"/><path d="m191.324 148.725 6.926 12.213c1.383 2.439 4.501 3.264 6.91 1.829l14.259-8.501c2.353-1.403 3.139-4.438 1.763-6.807l-6.848-11.784c-1.374-2.364-4.392-3.186-6.776-1.845l-14.337 8.071c-2.412 1.358-3.262 4.416-1.897 6.824z" fill="#d3e0e3"/><path d="m198 27.5c1.6-3.2 6.667-13.6667 9-18.5l17.5 7.5v-3.5l-17.5-9-4.5 3-8 18.5z" fill="#effcff"/><path d="m191.792 147.118c3.176-1.649 13.427-7.138 18.156-9.677l9.749 16.354 2.057-2.832-8.867-17.567-5.404-.218-17.347 10.264z" fill="#effcff"/><path d="m212.142 5.1445c.749.35464 1.068 1.24906.713 1.99774l-4.5 9.49996c-.354.7487-1.249 1.0682-1.997.7135-.749-.3546-1.068-1.249-.714-1.9977l4.5-9.50002c.355-.74868 1.249-1.06812 1.998-.71348z" fill="#2a373a"/><path d="m216.142 7.1445c.749.35464 1.068 1.24906.713 1.99774l-4.5 9.49996c-.354.7487-1.249 1.0682-1.997.7135-.749-.3546-1.068-1.249-.714-1.9977l4.5-9.50002c.355-.74868 1.249-1.06812 1.998-.71348z" fill="#2a373a"/><path d="m220.855 11.1422c.355-.7486.036-1.64306-.713-1.9977s-1.643-.0352-1.998.71348l-4.5 9.50002c-.354.7487-.035 1.6431.714 1.9977.748.3547 1.643.0352 1.997-.7135z" fill="#2a373a"/><path clip-rule="evenodd" d="m201.127 6.65025c1.595-3.48044 5.69-5.0336 9.192-3.48622l13.467 6.50831c3.508 1.55016 5.115 5.63486 3.604 9.16026l-7.539 17.2586c-1.546 3.6081-5.757 5.2395-9.331 3.6151l-13.782-6.81c-3.527-1.6033-5.081-5.7669-3.466-9.2891zm7.576.17253c-1.501-.66317-3.256.00247-3.94 1.49409l-6.855 14.95693c-.692 1.5095-.026 3.2939 1.486 3.9811l12.782 5.81c1.531.6961 3.336-.003 3.999-1.5494l6.539-15.2586c.647-1.5109-.041-3.2615-1.545-3.9258z" fill="#67777b" fill-rule="evenodd"/><path clip-rule="evenodd" d="m206.577 132.088c3.337-1.878 7.563-.728 9.486 2.583l7.069 13.18c1.927 3.316.827 7.566-2.468 9.53l-16.244 9.531c-3.371 2.01-7.737.855-9.673-2.56l-7.147-13.61c-1.911-3.371-.721-7.652 2.655-9.553zm6.028 4.592c-.825-1.418-2.636-1.911-4.066-1.107l-9.663 5.44 9.834 17.309 9.685-5.774c1.412-.841 1.883-2.663 1.058-4.084zm-7.331 23.69-9.884-17.395-1.188.669c-1.447.815-1.957 2.65-1.138 4.094l6.926 12.214c.83 1.463 2.701 1.958 4.146 1.097z" fill="#67777b" fill-rule="evenodd"/></svg>