<?xml version="1.0" encoding="UTF-8" standalone="no"?>
<!DOCTYPE svg PUBLIC "-//W3C//DTD SVG 1.1//EN"
 "http://www.w3.org/Graphics/SVG/1.1/DTD/svg11.dtd">
<!-- Generated by graphviz version 2.40.1 (20161225.0304)
 -->
<!-- Title: Gemfile Pages: 1 -->
<svg width="410pt" height="320pt"
 viewBox="0.00 0.00 410.24 319.65" xmlns="http://www.w3.org/2000/svg" xmlns:xlink="http://www.w3.org/1999/xlink">
<g id="graph0" class="graph" transform="scale(1 1) rotate(0) translate(4 315.6468)">
<title>Gemfile</title>
<polygon fill="#ffffff" stroke="transparent" points="-4,4 -4,-315.6468 406.2394,-315.6468 406.2394,4 -4,4"/>
<!-- default -->
<g id="node1" class="node">
<title>default</title>
<polygon fill="#b9b9d5" stroke="#000000" points="125.6393,-304.1909 65.5612,-304.1909 61.5612,-300.1909 61.5612,-268.1909 121.6393,-268.1909 125.6393,-272.1909 125.6393,-304.1909"/>
<polyline fill="none" stroke="#000000" points="121.6393,-300.1909 61.5612,-300.1909 "/>
<polyline fill="none" stroke="#000000" points="121.6393,-300.1909 121.6393,-268.1909 "/>
<polyline fill="none" stroke="#000000" points="121.6393,-300.1909 125.6393,-304.1909 "/>
<text text-anchor="middle" x="93.6002" y="-281.3909" font-family="Arial, Helvetica, SansSerif" font-size="16.00" fill="#000000">default</text>
</g>
<!-- cable_ready -->
<g id="node2" class="node">
<title>cable_ready</title>
<ellipse fill="#b9b9d5" stroke="#000000" cx="230.6002" cy="-286.1909" rx="65.4981" ry="25.4118"/>
<text text-anchor="middle" x="230.6002" y="-288.9909" font-family="Arial, Helvetica, SansSerif" font-size="14.00" fill="#000000">cable_ready</text>
<text text-anchor="middle" x="230.6002" y="-274.9909" font-family="Arial, Helvetica, SansSerif" font-size="14.00" fill="#000000">3.0.0</text>
</g>
<!-- default&#45;&gt;cable_ready -->
<g id="edge1" class="edge">
<title>default&#45;&gt;cable_ready</title>
<path fill="none" stroke="#000000" d="M125.7096,-286.1909C135.4407,-286.1909 145.1718,-286.1909 154.9028,-286.1909"/>
<polygon fill="#000000" stroke="#000000" points="155.0436,-289.691 165.0436,-286.1909 155.0436,-282.691 155.0436,-289.691"/>
</g>
<!-- activesupport -->
<g id="node3" class="node">
<title>activesupport</title>
<ellipse fill="none" stroke="#000000" cx="230.6002" cy="-199.2792" rx="70.3875" ry="25.4118"/>
<text text-anchor="middle" x="230.6002" y="-202.0792" font-family="Arial, Helvetica, SansSerif" font-size="14.00" fill="#000000">activesupport</text>
<text text-anchor="middle" x="230.6002" y="-188.0792" font-family="Arial, Helvetica, SansSerif" font-size="14.00" fill="#000000">5.2.2.1</text>
</g>
<!-- cable_ready&#45;&gt;activesupport -->
<g id="edge2" class="edge">
<title>cable_ready&#45;&gt;activesupport</title>
<path fill="none" stroke="#000000" d="M230.6002,-260.5846C230.6002,-252.6107 230.6002,-243.6662 230.6002,-235.1264"/>
<polygon fill="#000000" stroke="#000000" points="234.1003,-235.0028 230.6002,-225.0028 227.1003,-235.0029 234.1003,-235.0028"/>
</g>
<!-- i18n -->
<g id="node4" class="node">
<title>i18n</title>
<ellipse fill="none" stroke="#000000" cx="171.6002" cy="-112.3675" rx="33.1636" ry="25.4118"/>
<text text-anchor="middle" x="171.6002" y="-115.1675" font-family="Arial, Helvetica, SansSerif" font-size="14.00" fill="#000000">i18n</text>
<text text-anchor="middle" x="171.6002" y="-101.1675" font-family="Arial, Helvetica, SansSerif" font-size="14.00" fill="#000000">1.6.0</text>
</g>
<!-- activesupport&#45;&gt;i18n -->
<g id="edge3" class="edge">
<title>activesupport&#45;&gt;i18n</title>
<path fill="none" stroke="#000000" d="M213.535,-174.1408C207.0597,-164.6021 199.606,-153.6222 192.7952,-143.5894"/>
<polygon fill="#000000" stroke="#000000" points="195.5287,-141.3845 187.0163,-135.0766 189.7372,-145.3162 195.5287,-141.3845"/>
</g>
<!-- tzinfo -->
<g id="node5" class="node">
<title>tzinfo</title>
<ellipse fill="none" stroke="#000000" cx="63.6002" cy="-112.3675" rx="34.9497" ry="25.4118"/>
<text text-anchor="middle" x="63.6002" y="-115.1675" font-family="Arial, Helvetica, SansSerif" font-size="14.00" fill="#000000">tzinfo</text>
<text text-anchor="middle" x="63.6002" y="-101.1675" font-family="Arial, Helvetica, SansSerif" font-size="14.00" fill="#000000">1.2.5</text>
</g>
<!-- activesupport&#45;&gt;tzinfo -->
<g id="edge4" class="edge">
<title>activesupport&#45;&gt;tzinfo</title>
<path fill="none" stroke="#000000" d="M190.1742,-178.2403C163.0602,-164.1294 127.6018,-145.6758 101.1147,-131.8912"/>
<polygon fill="#000000" stroke="#000000" points="102.6349,-128.7367 92.1484,-127.2248 99.4033,-134.9461 102.6349,-128.7367"/>
</g>
<!-- minitest -->
<g id="node6" class="node">
<title>minitest</title>
<ellipse fill="none" stroke="#000000" cx="290.6002" cy="-112.3675" rx="45.3413" ry="25.4118"/>
<text text-anchor="middle" x="290.6002" y="-115.1675" font-family="Arial, Helvetica, SansSerif" font-size="14.00" fill="#000000">minitest</text>
<text text-anchor="middle" x="290.6002" y="-101.1675" font-family="Arial, Helvetica, SansSerif" font-size="14.00" fill="#000000">5.11.3</text>
</g>
<!-- activesupport&#45;&gt;minitest -->
<g id="edge5" class="edge">
<title>activesupport&#45;&gt;minitest</title>
<path fill="none" stroke="#000000" d="M247.9547,-174.1408C254.3257,-164.9123 261.6279,-154.3348 268.3683,-144.5711"/>
<polygon fill="#000000" stroke="#000000" points="271.3085,-146.4728 274.1095,-136.2549 265.5479,-142.4959 271.3085,-146.4728"/>
</g>
<!-- concurrent&#45;ruby -->
<g id="node7" class="node">
<title>concurrent&#45;ruby</title>
<ellipse fill="none" stroke="#000000" cx="321.6002" cy="-25.4558" rx="80.7786" ry="25.4118"/>
<text text-anchor="middle" x="321.6002" y="-28.2558" font-family="Arial, Helvetica, SansSerif" font-size="14.00" fill="#000000">concurrent&#45;ruby</text>
<text text-anchor="middle" x="321.6002" y="-14.2558" font-family="Arial, Helvetica, SansSerif" font-size="14.00" fill="#000000">1.1.5</text>
</g>
<!-- activesupport&#45;&gt;concurrent&#45;ruby -->
<g id="edge6" class="edge">
<title>activesupport&#45;&gt;concurrent&#45;ruby</title>
<path fill="none" stroke="#000000" d="M289.5369,-185.2511C314.4151,-176.101 340.9645,-161.3279 355.6002,-137.8234 370.6939,-113.5834 359.0837,-82.2204 345.4775,-58.7908"/>
<polygon fill="#000000" stroke="#000000" points="348.4346,-56.9178 340.2166,-50.231 342.471,-60.5832 348.4346,-56.9178"/>
</g>
<!-- i18n&#45;&gt;concurrent&#45;ruby -->
<g id="edge7" class="edge">
<title>i18n&#45;&gt;concurrent&#45;ruby</title>
<path fill="none" stroke="#000000" d="M198.4172,-96.8295C219.3566,-84.697 248.9854,-67.5297 273.9374,-53.0723"/>
<polygon fill="#000000" stroke="#000000" points="275.996,-55.9246 282.8938,-47.8828 272.4866,-49.8678 275.996,-55.9246"/>
</g>
<!-- thread_safe -->
<g id="node8" class="node">
<title>thread_safe</title>
<ellipse fill="none" stroke="#000000" cx="63.6002" cy="-25.4558" rx="63.7007" ry="25.4118"/>
<text text-anchor="middle" x="63.6002" y="-28.2558" font-family="Arial, Helvetica, SansSerif" font-size="14.00" fill="#000000">thread_safe</text>
<text text-anchor="middle" x="63.6002" y="-14.2558" font-family="Arial, Helvetica, SansSerif" font-size="14.00" fill="#000000">0.3.6</text>
</g>
<!-- tzinfo&#45;&gt;thread_safe -->
<g id="edge8" class="edge">
<title>tzinfo&#45;&gt;thread_safe</title>
<path fill="none" stroke="#000000" d="M63.6002,-86.7612C63.6002,-78.7873 63.6002,-69.8428 63.6002,-61.303"/>
<polygon fill="#000000" stroke="#000000" points="67.1003,-61.1794 63.6002,-51.1795 60.1003,-61.1795 67.1003,-61.1794"/>
</g>
</g>
</svg>
