<?xml version="1.0" encoding="UTF-8" standalone="no"?>
<!DOCTYPE svg PUBLIC "-//W3C//DTD SVG 1.1//EN" "http://www.w3.org/Graphics/SVG/1.1/DTD/svg11.dtd">
<svg width="100%" height="100%" viewBox="0 0 100 100" version="1.1" xmlns="http://www.w3.org/2000/svg" xmlns:xlink="http://www.w3.org/1999/xlink" xml:space="preserve" xmlns:serif="http://www.serif.com/" style="fill-rule:evenodd;clip-rule:evenodd;stroke-linejoin:round;stroke-miterlimit:2;">
    <g transform="matrix(1.87191,0,0,1.87191,-6.48702,-0.129166)">
        <path d="M50.766,1.212L56.534,1.212L56.534,11.099L50.766,11.099L50.766,11.923L45.653,11.923C44.838,11.923 44.175,11.26 44.175,10.445L44.175,8.627C43.102,8.627 42.196,7.936 41.855,6.979L29.722,6.979C26.165,6.979 22.893,8.213 20.302,10.269C21.969,9.715 23.752,9.415 25.603,9.415C29.803,9.415 32.457,10.417 34.864,12.824C37.538,15.239 39.231,18.72 39.231,22.598L39.231,22.616L39.231,22.634C39.231,29.903 33.317,35.817 26.049,35.817C22.17,35.817 18.689,34.124 16.274,31.449C13.829,29.004 13.014,26.868 12.885,23.311C12.872,23.075 12.866,22.837 12.866,22.598C12.866,22.546 12.866,22.495 12.867,22.444C12.866,22.359 12.866,22.274 12.866,22.188C12.866,20.285 13.183,18.455 13.767,16.747C11.66,19.355 10.394,22.666 10.394,26.272L10.394,38.404C11.351,38.745 12.042,39.652 12.042,40.724L13.859,40.724C14.674,40.724 15.338,41.388 15.338,42.203L15.338,47.316L14.514,47.316L14.514,53.083L4.626,53.083L4.626,47.316L3.803,47.316L3.803,42.203C3.803,41.388 4.466,40.724 5.281,40.724L7.098,40.724C7.098,39.652 7.79,38.745 8.746,38.404L8.746,25.47L8.765,25.47C9.019,20.082 11.815,15.347 15.977,12.441C18.89,8.346 23.585,5.602 28.921,5.351L28.921,5.332L41.855,5.332C42.196,4.375 43.102,3.684 44.175,3.684L44.175,1.866C44.175,1.051 44.838,0.388 45.653,0.388L50.766,0.388L50.766,1.212ZM6.274,45.668L6.274,51.436L7.098,51.436L7.098,49.788L8.746,49.788L8.746,51.436L10.394,51.436L10.394,49.788L12.042,49.788L12.042,51.436L12.866,51.436L12.866,45.668L13.69,45.668L13.69,42.372L12.042,42.372L12.042,44.02L7.098,44.02L7.098,42.372L5.45,42.372L5.45,45.668L6.274,45.668ZM12.042,48.964L7.098,48.964L7.098,47.316L12.042,47.316L12.042,48.964ZM9.57,39.901C9.116,39.901 8.746,40.27 8.746,40.724L8.746,42.372L10.394,42.372L10.394,40.724C10.394,40.27 10.024,39.901 9.57,39.901ZM14.514,22.598C14.514,28.959 19.688,34.133 26.049,34.133C32.409,34.133 37.584,28.959 37.584,22.598C37.584,20.837 37.175,19.174 36.466,17.679C36.652,18.466 36.76,19.283 36.76,20.126C36.76,26.032 31.955,30.837 26.049,30.837C20.143,30.837 15.338,26.032 15.338,20.126C15.338,19.283 15.445,18.466 15.631,17.679C14.922,19.174 14.514,20.837 14.514,22.598ZM26.331,11.077C26.196,11.074 26.061,11.07 25.924,11.069C20.985,11.137 16.985,15.171 16.985,20.126C16.985,25.123 21.051,29.189 26.049,29.189C31.046,29.189 35.112,25.123 35.112,20.126C35.112,15.224 31.197,11.229 26.331,11.077ZM45.823,8.627L45.823,10.275L49.119,10.275L49.119,9.451L54.886,9.451L54.886,8.627L53.238,8.627L53.238,6.979L54.886,6.979L54.886,5.332L53.238,5.332L53.238,3.684L54.886,3.684L54.886,2.86L49.119,2.86L49.119,2.036L45.823,2.036L45.823,3.684L47.471,3.684L47.471,8.627L45.823,8.627ZM52.414,3.684L52.414,8.627L50.766,8.627L50.766,3.684L52.414,3.684ZM45.823,5.332L44.175,5.332C43.72,5.332 43.351,5.702 43.351,6.156C43.351,6.61 43.72,6.979 44.175,6.979L45.823,6.979L45.823,5.332Z"/>
    </g>
    <g transform="matrix(0.0550522,0,0,0.0707815,31.0457,23.3381)">
        <path d="M315.232,9.015C311.883,3.276 305.681,0 298.244,0L206.936,0C196.036,0 184.712,7.113 180.006,16.924L83.17,218.041C80.008,224.601 80.203,231.559 83.641,237.078C87.104,242.646 93.233,245.889 100.5,246.044L172.162,246.946L120.285,376.621C119.009,379.856 116.326,386.635 121.106,393.602C123.195,396.658 126.78,398.528 130.47,398.528L131.307,398.528C138.306,398.528 142.524,393.22 144.548,390.66L312.176,180.17C319.329,171.204 316.378,163.157 315.297,160.816C314.175,158.573 309.672,151.224 298.251,151.224L244.911,151.224L314.711,28.239C318.37,21.752 318.573,14.729 315.232,9.015Z" style="fill:rgb(0,150,255);fill-rule:nonzero;"/>
    </g>
</svg>
